<?xml version="1.0" encoding="utf-8"?>
<!-- Generator: Adobe Illustrator 21.0.0, SVG Export Plug-In . SVG Version: 6.00 Build 0)  -->
<svg version="1.1" id="Capa_1" xmlns="http://www.w3.org/2000/svg" xmlns:xlink="http://www.w3.org/1999/xlink" x="0px" y="0px"
	 viewBox="0 0 438.5 438.5" style="enable-background:new 0 0 438.5 438.5;" xml:space="preserve">
<g>
	<path d="M409.1,109.2c-19.6-33.6-46.2-60.2-79.8-79.8C295.7,9.8,259.1,0,219.3,0c-39.8,0-76.5,9.8-110.1,29.4
		C75.6,49,49,75.6,29.4,109.2C9.8,142.8,0,179.5,0,219.3c0,39.8,9.8,76.5,29.4,110.1c19.6,33.6,46.2,60.2,79.8,79.8
		c33.6,19.6,70.3,29.4,110.1,29.4s76.5-9.8,110.1-29.4c33.6-19.6,60.2-46.2,79.8-79.8c19.6-33.6,29.4-70.3,29.4-110.1
		C438.5,179.5,428.7,142.8,409.1,109.2z"/>
</g>
</svg>
