<?xml version="1.0" encoding="utf-8"?>
<!-- Generator: Adobe Illustrator 21.0.0, SVG Export Plug-In . SVG Version: 6.00 Build 0)  -->
<svg version="1.1" id="Layer_1" xmlns="http://www.w3.org/2000/svg" xmlns:xlink="http://www.w3.org/1999/xlink" x="0px" y="0px"
	 viewBox="0 0 15.6 15.6" style="enable-background:new 0 0 15.6 15.6;" xml:space="preserve">
<style type="text/css">
	.st0{fill:#00AEEF;}
	.st1{fill:#FFFFFF;}
</style>
<title>foundation</title>
<g id="Layer_2">
	<g id="Layer_1-2">
		<path class="st0" d="M15.6,15.6L15.6,15.6H0v0V0h15.6c0,0,0,0,0,0.1C15.6,5.2,15.6,10.4,15.6,15.6 M7.1,5.9h3.2c0,0,0,0,0-0.1
			c0-0.5,0-0.9,0-1.4c0-0.7,0,0,0,0l0,0H5.3c0,0,0,0.1,0,0.1c0,2.2,0,4.4,0,6.6c0,3.3,0,0,0,0.1l0,0h1.7c0,0,0,0,0-0.1
			c0-0.8,0-1.7,0-2.5c0-1.3,0,0,0-0.1l0,0h3.1c0,0,0,0,0-0.1c0-0.5,0-0.9,0-1.4c0-0.7,0,0,0,0V7H7.1l0,0C7.1,6.5,7.1,6,7.1,5.9z"/>
		<path class="st1" d="M15.6,0L15.6,0v15.6H0v0h15.6l0,0c0,0,0,0,0-0.1C15.6,10.4,15.6,5.2,15.6,0"/>
	</g>
</g>
</svg>
