<svg xmlns="http://www.w3.org/2000/svg" viewBox="0 0 15.51 15.51"><defs><style>.cls-1{fill:#00aeef;}</style></defs><title>git</title><g id="Layer_2" data-name="Layer 2"><g id="Layer_1-2" data-name="Layer 1"><path class="cls-1" d="M7.75,0a7.75,7.75,0,1,0,7.75,7.75A7.75,7.75,0,0,0,7.75,0Zm0,14.3A6.54,6.54,0,1,1,14.3,7.75,6.54,6.54,0,0,1,7.75,14.3Z"/><path class="cls-1" d="M10.18,3.9A3.32,3.32,0,0,1,8,3.9C5.36,3.6,4.53,6.25,6.43,7.32c-.49.22-.46,1.35.07,1.51a1.35,1.35,0,0,0-.8,2.26,4,4,0,0,0,4,0,1.54,1.54,0,0,0,.13-2C9.44,8.69,7.4,8.63,7.43,8c0-.47.76-.39,1.21-.58a1.79,1.79,0,0,0,1-2.2c.19,0,.35-.09.53-.12ZM7,6.33c-1-1.86,2.25-1.72,1.27,0A1.32,1.32,0,0,1,7,6.33ZM8.77,10c.09.83-1.85.87-2.07.29s0-.63.6-.75S8.71,9.43,8.77,10Z"/></g></g></svg>