<?xml version="1.0" encoding="utf-8"?>
<!-- Generator: Adobe Illustrator 21.0.0, SVG Export Plug-In . SVG Version: 6.00 Build 0)  -->
<svg version="1.1" id="Layer_1" xmlns="http://www.w3.org/2000/svg" xmlns:xlink="http://www.w3.org/1999/xlink" x="0px" y="0px"
	 viewBox="0 0 22.1 22.1" style="enable-background:new 0 0 22.1 22.1;" xml:space="preserve">
<style type="text/css">
	.st0{fill:none;}
	.st1{fill:#3FA9F5;}
</style>
<title>gulp</title>
<g id="Layer_2">
	<g id="Layer_1-2">
		<path class="st0" d="M15.4,0C15.3,0,15.3,0.1,15.4,0l-2.5,2.7c-0.1,0.1-0.1,0.2-0.1,0.3c-0.1,0.6-0.3,1.1-0.4,1.7
			c0,0.1-0.1,0.2-0.2,0.2c0,0,0,0,0,0c-1.1,0-2.2,0-3.3,0.1C7.9,5,7.2,5.1,6.5,5.3c-0.2,0-0.3,0.2-0.4,0.3c0.1,0.1,0.3,0.2,0.4,0.3
			C7,6,7.5,6.1,8,6.1c1.3,0.1,2.5,0.1,3.8,0.1c1.2,0,2.3-0.1,3.5-0.3c0.2,0,0.4-0.1,0.6-0.2c0.1,0,0.1-0.1,0.1-0.2
			c0,0-0.1-0.1-0.1-0.2c-0.1-0.1-0.2-0.1-0.3-0.1c-0.7-0.1-1.4-0.2-2.2-0.3c-0.2,0-0.2-0.1-0.2-0.2c0.1-0.5,0.2-0.9,0.4-1.4
			c0-0.1,0.1-0.2,0.2-0.3l2.2-2.4c0.2-0.2,0.2-0.3,0-0.4c-0.1-0.1-0.2-0.2-0.3-0.3 M12,22.1h0.2c0.4-0.1,0.9-0.2,1.3-0.3
			c0.2-0.1,0.4-0.3,0.3-0.5c0-0.9,0.1-1.8,0.1-2.7c0-0.4,0.1-0.8,0.3-1.1c0.1-0.2,0.2-0.4,0.3-0.5c-2.3,0.7-4.8,0.7-7.1,0
			c0.2,0.3,0.4,0.6,0.5,0.9C8,18,8.1,18.1,8.1,18.2c0.1,1.1,0.2,2.1,0.2,3.2c0,0.1,0.1,0.3,0.2,0.3C8.8,21.8,9,21.9,9.3,22
			c0.3,0,0.6,0.1,0.9,0.1 M16,6c-3.3,0.6-6.6,0.6-9.9,0l0.6,5.2h0.1c0-0.1,0-0.1,0.1-0.2c0.2-0.4,0.5-0.9,0.7-1.3
			C7.8,9.4,8.1,9.1,8.4,9c0.4-0.2,1,0,1.2,0.4c0,0,0,0,0,0.1c0.1,0.1,0.1,0.3-0.1,0.4c0,0,0,0,0,0C9.4,10,9.3,9.8,9.3,9.7L9.2,9.6
			C9.1,9.4,8.9,9.3,8.6,9.4c-0.1,0-0.1,0.1-0.2,0.1C8.4,9.5,8.3,9.6,8.2,9.7c-0.4,0.5-0.7,1-0.9,1.6c-0.1,0.3-0.1,0.6-0.2,0.9
			c0,0.4,0.2,0.5,0.5,0.3c0.5-0.3,0.8-0.8,1-1.3c0-0.2,0.1-0.3,0.2-0.4c0.1-0.1,0.1-0.1,0.2-0.1c0,0,0.1,0.1,0.1,0.2
			c0,0.2,0,0.3-0.1,0.5c-0.2,0.6-0.4,1.3-0.6,1.9c0,0.1-0.1,0.2-0.1,0.4c0,0.1-0.1,0.1-0.2,0.1c-0.1,0-0.1-0.1-0.1-0.2
			c0-0.1,0-0.3,0.1-0.4c0.1-0.2,0.1-0.5,0.2-0.7c-0.5,0.4-0.8,0.9-1.5,0.7c0,0.1,0,0.1,0,0.2c0.1,1,0.2,2,0.3,3
			c0,0.2,0.2,0.4,0.4,0.5c0.6,0.2,1.3,0.3,1.9,0.4c0.8,0.1,1.7,0,2.5,0c0.8,0,1.6-0.2,2.3-0.4c0.3-0.1,0.5-0.3,0.5-0.6
			c0.1-1,0.2-1.9,0.3-2.9c0-0.3,0.1-0.5,0.1-0.8l-0.6,0.5c-0.2,0.2-0.4,0.2-0.7,0.2c-0.2,0-0.3-0.1-0.3-0.3c0,0,0-0.1,0-0.1
			c0-0.1,0.1-0.2,0.2-0.3c0.2-0.2,0.3-0.4,0.5-0.6c0-0.1,0.1-0.2,0.1-0.3h-0.1c-0.1,0-0.2,0-0.2,0.1c-0.2,0.1-0.4,0.3-0.5,0.4
			c-0.4,0.6-0.7,1.2-0.9,1.9c-0.1,0.2-0.1,0.4-0.2,0.5c-0.1,0.1-0.1,0.2-0.3,0.1s-0.1-0.2-0.1-0.3l0.4-1l0.2-0.4
			c-0.1,0-0.2,0.1-0.3,0.2c-0.1,0.1-0.2,0.1-0.3,0.2c-0.2,0.1-0.5,0.1-0.6-0.1c0,0,0,0,0,0l-0.4,0.2c-0.3,0.1-0.5,0-0.5-0.3
			c0,0,0-0.1,0-0.2c-0.1,0.1-0.1,0.2-0.2,0.2c-0.2,0.2-0.4,0.3-0.7,0.3c-0.3,0-0.5-0.1-0.4-0.4c0.1-0.5,0.3-0.9,0.5-1.4
			c0-0.1,0.1-0.3,0.3-0.2s0.1,0.3,0,0.4c-0.1,0.3-0.2,0.6-0.3,0.9c0,0.1,0,0.2,0,0.3s0.3,0,0.3-0.1c0.2-0.2,0.4-0.5,0.6-0.7
			c0.1-0.2,0.2-0.4,0.3-0.6s0.1-0.1,0.2-0.1s0.1,0.2,0.1,0.3s-0.1,0.4-0.2,0.6c-0.1,0.2-0.1,0.4-0.2,0.6c0,0.2,0.1,0.2,0.2,0.2
			c0.2-0.1,0.3-0.2,0.4-0.4c0.1-0.4,0.3-0.8,0.4-1.2c0.2-0.6,0.5-1.1,0.7-1.6c0-0.1,0.1-0.2,0.3-0.1s0.1,0.2,0.1,0.3l-0.2,0.5
			c-0.3,0.7-0.6,1.4-0.9,2.2c0,0.1,0,0.2-0.1,0.3h0.1l0.1-0.1c0.5-0.3,0.8-0.7,1-1.2c0-0.1,0.1-0.3,0.3-0.2s0.1,0.2,0.1,0.3v0.1
			l0.2-0.1c0.1-0.1,0.3-0.2,0.4-0.3c0.2-0.1,0.5-0.1,0.6,0.1c0.1,0.2,0.1,0.3,0,0.5c-0.2,0.3-0.3,0.5-0.5,0.8l-0.2,0.3v0.1
			c0.1,0,0.2,0,0.2-0.1c0.1-0.1,0.3-0.2,0.4-0.3c0.4-0.2,0.6-0.6,0.6-1.1c0.1-1.2,0.3-2.5,0.4-3.7C15.9,7,15.9,6.5,16,6z"/>
		<path class="st1" d="M10.2,22.1c-0.3,0-0.6-0.1-0.9-0.1c-0.3-0.1-0.6-0.2-0.8-0.3c-0.1-0.1-0.2-0.2-0.2-0.3
			c-0.1-1.1-0.1-2.1-0.2-3.2c0-0.1,0-0.2-0.1-0.3c-0.2-0.3-0.3-0.6-0.5-0.9c2.3,0.7,4.8,0.7,7.1,0c-0.1,0.2-0.2,0.4-0.3,0.5
			c-0.2,0.3-0.3,0.7-0.3,1.1c0,0.9-0.1,1.8-0.1,2.7c0,0.2-0.1,0.4-0.3,0.5c-0.4,0.1-0.8,0.2-1.3,0.3H12L10.2,22.1z"/>
		<path class="st1" d="M15.6,0c0.1,0.1,0.2,0.2,0.3,0.3c0.2,0.2,0.2,0.3,0,0.4l-2.2,2.4c-0.1,0.1-0.1,0.2-0.2,0.3
			c-0.1,0.5-0.2,0.9-0.4,1.4c-0.1,0.2,0,0.2,0.2,0.2c0.7,0.1,1.4,0.2,2.2,0.3c0.1,0,0.2,0.1,0.3,0.1c0.1,0,0.1,0.1,0.1,0.2
			c0,0.1-0.1,0.1-0.1,0.2c-0.2,0.1-0.4,0.1-0.6,0.2c-1.1,0.2-2.3,0.3-3.5,0.3c-1.3,0-2.5-0.1-3.8-0.1C7.5,6.1,7,6,6.5,5.8
			C6.3,5.8,6.2,5.7,6.1,5.6c0.1-0.1,0.3-0.3,0.4-0.3C7.2,5.2,7.9,5.1,8.7,5c1.1-0.1,2.2-0.1,3.3-0.1c0.1,0,0.2-0.1,0.2-0.2
			c0,0,0,0,0,0c0.1-0.6,0.3-1.1,0.4-1.7c0-0.1,0.1-0.2,0.1-0.3l2.5-2.6c0,0,0-0.1,0.1-0.1H15.6z"/>
		<path class="st1" d="M16,6c0,0.5-0.1,1-0.1,1.5c-0.1,1.2-0.3,2.5-0.4,3.7c0,0.4-0.2,0.8-0.6,1.1c-0.1,0.1-0.3,0.2-0.4,0.3
			c-0.1,0-0.1,0.1-0.2,0.1v-0.1l0.2-0.3c0.2-0.2,0.4-0.5,0.5-0.8c0.1-0.2,0.1-0.3,0-0.5c-0.1-0.2-0.4-0.2-0.6-0.1
			c-0.1,0.1-0.3,0.2-0.4,0.3l-0.2,0.1v-0.1c0-0.1,0.1-0.3-0.1-0.3s-0.2,0.1-0.3,0.2c-0.2,0.5-0.5,1-1,1.2l-0.1,0.1h-0.1
			c0-0.1,0-0.2,0.1-0.3c0.3-0.7,0.6-1.4,0.9-2.2l0.2-0.5c0-0.1,0-0.2-0.1-0.3s-0.2,0-0.3,0.1c-0.2,0.6-0.5,1.1-0.7,1.6
			c-0.2,0.4-0.3,0.8-0.4,1.2c-0.1,0.2-0.2,0.3-0.4,0.4c-0.2,0.1-0.3,0-0.2-0.2c0-0.2,0.1-0.4,0.2-0.6c0.1-0.2,0.1-0.4,0.2-0.6
			s-0.1-0.2-0.1-0.3s-0.2,0.1-0.2,0.1s-0.2,0.4-0.3,0.6c-0.2,0.3-0.4,0.5-0.6,0.7c-0.1,0.1-0.2,0.1-0.3,0.1s-0.1-0.2,0-0.3
			c0.1-0.3,0.2-0.6,0.3-0.9c0.1-0.1,0.2-0.3,0-0.4S10.1,11,10,11.1c-0.2,0.5-0.4,0.9-0.5,1.4C9.5,12.9,9.7,13,10,13
			c0.3,0,0.5-0.1,0.7-0.3c0.1-0.1,0.1-0.1,0.2-0.2c0,0.1,0,0.1,0,0.2c0,0.3,0.2,0.4,0.5,0.3l0.4-0.2c0.1,0.2,0.4,0.3,0.6,0.2
			c0,0,0,0,0,0c0.1-0.1,0.2-0.1,0.3-0.2c0.1-0.1,0.2-0.1,0.3-0.2L12.8,13l-0.4,1c0,0.1-0.1,0.2,0.1,0.3s0.2,0,0.3-0.1
			c0.1-0.2,0.2-0.3,0.2-0.5c0.2-0.7,0.5-1.3,0.9-1.9c0.2-0.2,0.3-0.3,0.5-0.4c0.1,0,0.2-0.1,0.2-0.1h0.1c0,0.1-0.1,0.2-0.1,0.3
			c-0.2,0.2-0.3,0.4-0.5,0.6c-0.1,0.1-0.1,0.2-0.2,0.3c-0.1,0.1,0,0.3,0.1,0.4c0,0,0.1,0,0.1,0c0.2,0,0.5,0,0.7-0.2l0.6-0.5
			c0,0.3-0.1,0.6-0.1,0.8c-0.1,1-0.2,1.9-0.3,2.9c0,0.3-0.2,0.6-0.5,0.6c-0.8,0.2-1.6,0.4-2.3,0.4c-0.8,0-1.7,0-2.5,0
			c-0.6-0.1-1.3-0.2-1.9-0.4c-0.2,0-0.4-0.2-0.4-0.5c-0.1-1-0.2-2-0.3-3C7,13.1,7,13,7,13c0.7,0.2,1-0.3,1.5-0.7
			c-0.1,0.3-0.1,0.5-0.2,0.7c0,0.1-0.1,0.3-0.1,0.4c0,0.1,0.1,0.1,0.1,0.2c0,0,0.1-0.1,0.2-0.1c0.1-0.1,0.1-0.2,0.1-0.4
			c0.2-0.6,0.4-1.3,0.6-1.9c0-0.2,0.1-0.3,0.1-0.5c0-0.1-0.1-0.2-0.1-0.2c-0.1,0-0.2,0-0.2,0.1c-0.1,0.1-0.1,0.3-0.2,0.4
			c-0.2,0.5-0.5,1-1,1.3c-0.3,0.2-0.6,0.1-0.5-0.3c0-0.3,0.1-0.6,0.2-0.9C7.7,10.6,8,10,8.4,9.6c0.1-0.1,0.2-0.2,0.3-0.2
			c0.2-0.2,0.5-0.2,0.6,0c0,0,0.1,0.1,0.1,0.2l0.1,0.1c0.1,0.1,0.1,0.2,0.3,0.2c0.1-0.1,0.2-0.2,0.1-0.4c0,0,0,0,0,0
			C9.6,8.9,9.1,8.7,8.7,8.9C8.6,8.9,8.5,8.9,8.4,9C8.1,9.2,7.8,9.4,7.6,9.7c-0.3,0.4-0.5,0.9-0.7,1.3c0,0.1-0.1,0.1-0.1,0.2H6.7
			L6.1,6C9.4,6.6,12.7,6.6,16,6z"/>
	</g>
</g>
</svg>
