<svg xmlns="http://www.w3.org/2000/svg" viewBox="0 0 15.05 15.05"><defs><style>.cls-1{fill:#00aeef;}</style></defs><title>illustrator</title><g id="Layer_2" data-name="Layer 2"><g id="Layer_1-2" data-name="Layer 1"><path class="cls-1" d="M5.22,9.48H7.34l.57,1.9h1.8L7.42,4H5.22L3,11.37H4.7Zm1-4.25h0c.11.44.84,3,.84,3H5.46S6.13,5.67,6.24,5.23Z"/><rect class="cls-1" x="10.36" y="6.01" width="1.67" height="5.36"/><path class="cls-1" d="M11.19,5.35a.84.84,0,1,0,0-1.68.81.81,0,0,0-.88.84A.82.82,0,0,0,11.19,5.35Z"/><path class="cls-1" d="M0,0V15H15V0ZM14.12,14.12H.93V.93H14.12Z"/></g></g></svg>