<svg xmlns="http://www.w3.org/2000/svg" viewBox="0 0 13.21 15.47"><defs><style>.cls-1{fill:#00aeef;}</style></defs><title>linux_1</title><g id="Layer_2" data-name="Layer 2"><g id="Layer_1-2" data-name="Layer 1"><g id="_Group_" data-name="&lt;Group&gt;"><path id="_Compound_Path_" data-name="&lt;Compound Path&gt;" class="cls-1" d="M12.8,12.42c-.45-.19-.65-.43-.63-.8a1.22,1.22,0,0,0-.34-.87,3.75,3.75,0,0,0,0-2A17.23,17.23,0,0,0,9.71,5.3a3,3,0,0,1-.42-1.77,5.38,5.38,0,0,0-.4-2.16A2.23,2.23,0,0,0,6.77,0,2.89,2.89,0,0,0,5.16.49c-.93.64-.8,2-.72,3,0,.13,0,.25,0,.35a4.58,4.58,0,0,1-.06,1.52A6.36,6.36,0,0,1,3.95,6c-.22.29-.48.63-.69.94a7.31,7.31,0,0,0-.64,1.5,7.2,7.2,0,0,1-.41,1,1.38,1.38,0,0,0-.13,1,1.06,1.06,0,0,0-.34.43c-.14.29-.42.45-1,.56a.77.77,0,0,0-.55.33,1,1,0,0,0,0,.76,1.18,1.18,0,0,1-.08.85L0,13.68a.5.5,0,0,0,.05.43c.22.33.86.45,1.52.53A5.87,5.87,0,0,1,2.84,15a5.87,5.87,0,0,0,1.22.35h.17a1,1,0,0,0,.92-.54,10.34,10.34,0,0,1,1.67-.2,7.24,7.24,0,0,1,1.66.17,1.33,1.33,0,0,0,.5.54,1.21,1.21,0,0,0,.56.13h0a1.35,1.35,0,0,0,1-.41,8.79,8.79,0,0,1,1.79-1.14l.38-.21a.84.84,0,0,0,.52-.75A.63.63,0,0,0,12.8,12.42Zm-7.63-.07c0-.3-.43-.6-.88-.95a3.12,3.12,0,0,1-.9-.88,2.65,2.65,0,0,1,.28-2.06,5.22,5.22,0,0,0,.42-1,3.61,3.61,0,0,1,.44-1A2.56,2.56,0,0,0,5,5.17,1.59,1.59,0,0,0,6,5.68l.15,0A5.06,5.06,0,0,0,7,5.21a3.88,3.88,0,0,1,.76-.38A21.33,21.33,0,0,1,9.48,9a4.39,4.39,0,0,1-.06,1.59H9.26c-.37,0-.46.2-.49.32A13,13,0,0,0,8.7,12.4a3,3,0,0,1-1.76,1.1,7.66,7.66,0,0,1-1.08.09,3.61,3.61,0,0,1-.53,0L4.84,13A.59.59,0,0,0,5.17,12.35Zm.61-9.1,0,0s0-.07,0-.1a.56.56,0,0,0-.48-.52H5.2a.4.4,0,0,0-.29.26c0-.31.23-.54.44-.54s.45.33.45.72A1.08,1.08,0,0,1,5.78,3.25Zm1.91.23a.75.75,0,0,0,0-.23.58.58,0,0,0-.51-.63.58.58,0,0,0-.51.63.71.71,0,0,0,0,.07l0,0a1,1,0,0,1,0-.3.71.71,0,0,1,.61-.77A.7.7,0,0,1,7.82,3,.9.9,0,0,1,7.69,3.49Zm-.25.83s0,0-.13.09l-.22.12L7,4.56a5.54,5.54,0,0,1-1,.5c-.1,0-.17,0-.31-.12l-.1-.07a1.23,1.23,0,0,1-.45-.43c.09-.07.29-.23.4-.33a1.15,1.15,0,0,1,.55-.34h0A5.29,5.29,0,0,1,6.86,4l.26.1A.62.62,0,0,1,7.45,4.31Zm1.82,9.45a7.55,7.55,0,0,0,.22-1.63c0-.09,0-.2,0-.29a2.76,2.76,0,0,1,0-.54h0a.92.92,0,0,0,.43.87,1,1,0,0,0,.38.07,1.56,1.56,0,0,0,1-.36,1.72,1.72,0,0,0,.25-.32.38.38,0,0,1,0,.15,1.09,1.09,0,0,0,.47,1l0,0c.11.06.42.22.43.3l0,0a4.36,4.36,0,0,1-.61.34,5.27,5.27,0,0,0-1.22.75,1.67,1.67,0,0,1-.93.58H9.61C9.36,14.62,9.16,14.27,9.27,13.76ZM.9,12.45a.69.69,0,0,1,0-.3c0-.07.34-.14.48-.17a1.94,1.94,0,0,0,.53-.17,1.09,1.09,0,0,0,.36-.49.76.76,0,0,1,.2-.31h0c.14,0,.44.3.62.57l.22.36a11.44,11.44,0,0,0,.87,1.33c.18.19.47.57.4.89a1,1,0,0,1-.4.5H4.1a5.72,5.72,0,0,1-1.56-.49l-.06,0a4.9,4.9,0,0,0-1-.21,3.17,3.17,0,0,1-.75-.17c-.05-.06,0-.25.06-.42A2.69,2.69,0,0,0,.93,13,1.4,1.4,0,0,0,.9,12.45Z"/></g></g></g></svg>