<svg xmlns="http://www.w3.org/2000/svg" viewBox="0 0 10.68 15.25"><defs><style>.cls-1{fill:#00aeef;}</style></defs><title>location</title><g id="Layer_2" data-name="Layer 2"><g id="Layer_1-2" data-name="Layer 1"><path class="cls-1" d="M5.39,3.34A1.95,1.95,0,1,0,7.34,5.29,2,2,0,0,0,5.39,3.34Zm0,3.34A1.39,1.39,0,1,1,6.78,5.29,1.39,1.39,0,0,1,5.39,6.68Z"/><path class="cls-1" d="M9.11,1.56a5.34,5.34,0,0,0-7.55,0,6.08,6.08,0,0,0-.5,7.5l4.28,6.18L9.61,9.08A6.08,6.08,0,0,0,9.11,1.56Zm0,7.19L5.34,14.27,1.51,8.74A5.5,5.5,0,0,1,2,2,4.79,4.79,0,0,1,8.72,2,5.5,5.5,0,0,1,9.16,8.75Z"/></g></g></svg>