<?xml version="1.0" encoding="utf-8"?>
<!-- Generator: Adobe Illustrator 21.0.0, SVG Export Plug-In . SVG Version: 6.00 Build 0)  -->
<svg version="1.1" id="Layer_1" xmlns="http://www.w3.org/2000/svg" xmlns:xlink="http://www.w3.org/1999/xlink" x="0px" y="0px"
	 viewBox="0 0 17.3 17.3" style="enable-background:new 0 0 17.3 17.3;" xml:space="preserve">
<style type="text/css">
	.st0{fill:none;}
	.st1{fill:#3FA9F5;}
</style>
<title>nodejs</title>
<g id="Layer_2">
	<g id="Layer_1-2">
		<path class="st0" d="M8.8,17.3c0.2-0.1,0.3-0.1,0.5-0.2l6.3-3.6c0.4-0.2,0.7-0.7,0.7-1.2c0-2.4,0-4.8,0-7.2c0-0.5-0.3-1-0.7-1.2
			L9.4,0.2c-0.5-0.3-1-0.3-1.5,0L1.7,3.8C1.3,4,1,4.5,1,5c0,2.4,0,4.8,0,7.2c0,0.5,0.2,0.9,0.7,1.2c0.5,0.3,1.1,0.6,1.6,0.9
			c0.5,0.3,1.1,0.4,1.6,0.4c0.8,0,1.5-0.6,1.7-1.4c0-0.2,0.1-0.4,0.1-0.6c0-2.3,0-4.7,0-7c0-3.5,0-0.1,0-0.1c0-0.1-0.1-0.2-0.2-0.2
			c0,0,0,0-0.1,0H5.8c-0.3,0-0.3,0-0.3,0.3c0,2.3,0,4.6,0,6.9c0,0.1,0,0.1,0,0.2c0,0.4-0.3,0.7-0.6,0.7c-0.3,0.1-0.6,0-0.9-0.2
			l-1.6-0.9c-0.1-0.1-0.2-0.2-0.2-0.3c0-2.4,0-4.7,0-7.1c0-0.1,0.1-0.2,0.2-0.3l6.1-3.5c0.1-0.1,0.3-0.1,0.4,0L15,4.8
			c0.1,0.1,0.2,0.2,0.2,0.3c0,2.4,0,4.7,0,7.1c0,0.1-0.1,0.3-0.2,0.3l-6.2,3.5c-0.1,0.1-0.3,0.1-0.4,0L7,15.2
			c-0.1-0.1-0.2-0.1-0.3,0c-0.3,0.1-0.6,0.3-0.8,0.4c-0.1,0-0.1,0.1-0.2,0.1c0,0,0.1,0.1,0.1,0.1l1.7,1c0.3,0.2,0.6,0.4,1,0.5
			 M10.8,12.9c0.8,0,1.5-0.1,2.3-0.4c0.8-0.3,1.3-1.1,1.3-1.9c0.1-0.9-0.4-1.7-1.2-1.9c-0.2-0.1-0.5-0.2-0.8-0.2
			C11.7,8.3,11,8.2,10.3,8C9.9,7.9,9.5,7.8,9.1,7.7c-0.2,0-0.3-0.2-0.3-0.3C8.6,7,8.8,6.7,9.1,6.5c0.1-0.1,0.3-0.1,0.4-0.2
			c0.7-0.2,1.5-0.2,2.2,0c0.5,0.1,0.9,0.4,1,0.9c0,0.1,0,0.1,0.1,0.2c0,0.1,0.1,0.2,0.3,0.2c0,0,0,0,0,0h0.8c0.2,0,0.3-0.1,0.3-0.3
			c0-1-0.7-1.9-1.7-2.2C11.6,4.9,10.7,4.9,9.9,5c-0.5,0-1,0.2-1.5,0.4c-0.7,0.3-1.1,1-1.1,1.8C7.2,8,7.7,8.7,8.5,9
			C8.7,9.1,9,9.2,9.2,9.2c0.7,0.1,1.5,0.2,2.2,0.3c0.4,0.1,0.8,0.2,1.1,0.3c0.2,0.1,0.3,0.2,0.4,0.4c0.1,0.4,0,0.8-0.3,1
			c-0.2,0.1-0.3,0.2-0.5,0.2c-0.9,0.2-1.8,0.2-2.7,0c-0.5-0.1-0.9-0.5-1-1c0-0.1,0-0.1,0-0.2c0-0.1-0.1-0.3-0.2-0.3c0,0-0.1,0-0.1,0
			H7.3c-0.2,0-0.3,0.1-0.3,0.3c0,1,0.6,1.9,1.5,2.2C9.3,12.7,10.1,12.9,10.8,12.9z"/>
		<path class="st1" d="M8.5,17.3c-0.4-0.1-0.7-0.3-1-0.5l-1.7-1c-0.1,0-0.1-0.1-0.1-0.1c0,0,0.1-0.1,0.2-0.1
			c0.3-0.1,0.6-0.3,0.8-0.4c0.1-0.1,0.2-0.1,0.3,0l1.5,0.9c0.1,0.1,0.3,0.1,0.4,0l6.2-3.5c0.1-0.1,0.2-0.2,0.2-0.3
			c0-2.4,0-4.7,0-7.1c0-0.1-0.1-0.2-0.2-0.3L8.8,1.2c-0.1-0.1-0.3-0.1-0.4,0L2.3,4.8C2.2,4.8,2.1,5,2.1,5.1c0,2.4,0,4.7,0,7.1
			c0,0.1,0.1,0.2,0.2,0.3l1.6,0.9c0.3,0.2,0.6,0.2,0.9,0.2c0.4-0.1,0.6-0.4,0.6-0.7c0-0.1,0-0.1,0-0.2c0-2.3,0-4.6,0-6.9
			c0-0.3,0-0.3,0.3-0.3h0.6c0.1,0,0.2,0.1,0.2,0.2c0,0,0,0,0,0.1c0,0,0,0.1,0,0.1c0,2.3,0,4.7,0,7c0,0.2,0,0.4-0.1,0.6
			c-0.1,0.8-0.8,1.4-1.7,1.4c-0.6,0-1.1-0.1-1.6-0.4c-0.5-0.3-1.1-0.6-1.6-0.9C1.2,13.2,1,12.8,1,12.3C1,9.9,1,7.4,1,5
			c0-0.5,0.3-1,0.7-1.2l6.2-3.5c0.5-0.3,1-0.3,1.5,0l6.2,3.6C16,4.1,16.3,4.5,16.3,5c0,2.4,0,4.8,0,7.2c0,0.5-0.2,1-0.7,1.2
			l-6.3,3.7c-0.2,0.1-0.3,0.1-0.5,0.2H8.5z"/>
		<path class="st1" d="M10.8,12.9c-0.8,0-1.5-0.1-2.2-0.4c-0.9-0.3-1.5-1.2-1.5-2.2c0-0.2,0.1-0.3,0.3-0.3h0.8
			c0.1,0,0.3,0.1,0.3,0.2c0,0,0,0,0,0c0,0.1,0,0.1,0,0.2c0.1,0.5,0.5,0.9,1,1c0.9,0.2,1.8,0.2,2.7,0c0.2,0,0.4-0.1,0.5-0.2
			c0.3-0.2,0.4-0.6,0.3-1c-0.1-0.2-0.2-0.3-0.4-0.4c-0.4-0.1-0.8-0.2-1.1-0.3C10.7,9.4,10,9.3,9.2,9.2C9,9.2,8.7,9.1,8.5,9
			C7.7,8.7,7.2,8,7.3,7.2c0-0.8,0.4-1.4,1.1-1.8C8.9,5.2,9.4,5,9.9,5c0.8-0.1,1.7,0,2.5,0.2c1,0.3,1.7,1.2,1.7,2.2
			c0,0.2-0.1,0.3-0.3,0.3H13c-0.1,0-0.3-0.1-0.3-0.2c0,0,0,0,0,0c0-0.1,0-0.1-0.1-0.2c-0.1-0.5-0.5-0.8-1-0.9
			c-0.7-0.2-1.5-0.2-2.2,0C9.3,6.4,9.2,6.4,9,6.5C8.7,6.7,8.6,7.1,8.7,7.4c0,0.2,0.2,0.3,0.3,0.3C9.4,7.9,9.8,8,10.2,8.1
			c0.7,0.1,1.4,0.2,2.1,0.4c0.3,0,0.5,0.1,0.8,0.2c0.8,0.2,1.4,1.1,1.2,1.9c0,0.8-0.5,1.6-1.3,1.9C12.3,12.8,11.6,12.9,10.8,12.9z"
			/>
	</g>
</g>
</svg>
