<svg xmlns="http://www.w3.org/2000/svg" viewBox="0 0 15.49 10.24"><defs><style>.cls-1{fill:#00aeef;fill-rule:evenodd;}</style></defs><title>rails</title><g id="Layer_2" data-name="Layer 2"><g id="Layer_1-2" data-name="Layer 1"><path class="cls-1" d="M15.49,1.92c-.46-.23-.88-.46-1.34-.65A8.39,8.39,0,0,0,8.93.78,7.62,7.62,0,0,0,5.34,2.55,12.66,12.66,0,0,0,2.56,6.28a7.5,7.5,0,0,0-.91,3.79c0,.06,0,.12,0,.18H9.21l0-.08c-.3-.67-.66-1.32-.9-2A5.05,5.05,0,0,1,8.07,5c.42-1.4,1.59-2.42,3.54-3a4.81,4.81,0,0,1,2.32-.14,3.5,3.5,0,0,1,1.2.47ZM0,8.64l1.4.11.25-1L.17,7.68ZM1.16,5.28l1.34.29.4-.75L1.59,4.47Zm7.77,4,1.51.06L10,8.69a.2.2,0,0,0-.13-.06H8.65ZM4.12,1.93l-.8.6,1,.46.77-.62ZM9.45,7.26c0-.21,0-.39,0-.57a.12.12,0,0,0-.07-.09l-1-.37c0,.23,0,.42-.05.62,0,0,0,.07.08.08ZM8,.8,7.38.34a.25.25,0,0,0-.16,0L6.35.6,7,1.16ZM8.34,5l1,.56c.07-.21.14-.39.2-.57a.09.09,0,0,0,0-.1l-.76-.39ZM11,.53a3.76,3.76,0,0,0-.09-.42A.19.19,0,0,0,10.79,0H9.69c0,.15.09.31.14.48a.13.13,0,0,0,.09,0ZM9.26,3.27l.82.61.29-.35a.09.09,0,0,0,0-.11l-.52-.53-.53.32Zm2.11-.52c.56-.23.62-.31.4-.58L11,2.3ZM13.62.57a.86.86,0,0,0,0,.21c0,.06,0,.14.07.17.22.1.46.17.71.26L14.56,1Zm.58,1.59L13.46,2v.29l.74.06Z"/><path class="cls-1" d="M15.49,1.92l-.37.37a3.5,3.5,0,0,0-1.2-.47A4.81,4.81,0,0,0,11.61,2c-2,.58-3.13,1.6-3.54,3a5.05,5.05,0,0,0,.21,3.2c.24.68.59,1.33.9,2l0,.08H1.67c0-.06,0-.12,0-.18a7.5,7.5,0,0,1,.91-3.79A12.66,12.66,0,0,1,5.34,2.55,7.62,7.62,0,0,1,8.93.78a8.39,8.39,0,0,1,5.22.49C14.61,1.47,15,1.7,15.49,1.92Z"/><path class="cls-1" d="M0,8.64l.17-1,1.48.08-.25,1Z"/><path class="cls-1" d="M1.16,5.28l.43-.81,1.31.35-.4.75Z"/><path class="cls-1" d="M8.94,9.31l-.28-.69H9.82a.2.2,0,0,1,.13.06l.5.69Z"/><path class="cls-1" d="M4.12,1.93l1,.45L4.35,3l-1-.46Z"/><path class="cls-1" d="M9.45,7.26,8.34,6.93s-.08-.05-.08-.08c0-.2,0-.4.05-.62l1,.37a.12.12,0,0,1,.07.09C9.42,6.87,9.44,7,9.45,7.26Z"/><path class="cls-1" d="M8,.8,7,1.16,6.35.6l.86-.3a.25.25,0,0,1,.16,0Z"/><path class="cls-1" d="M8.34,5l.37-.5.76.39a.09.09,0,0,1,0,.1c-.06.18-.12.36-.2.57Z"/><path class="cls-1" d="M11,.53H9.92a.13.13,0,0,1-.09,0C9.77.31,9.73.15,9.69,0h1.1a.19.19,0,0,1,.14.11A3.76,3.76,0,0,1,11,.53Z"/><path class="cls-1" d="M9.26,3.27l.06-.05.53-.32.52.53a.09.09,0,0,1,0,.11l-.29.35Z"/><path class="cls-1" d="M11.37,2.75,11,2.3l.77-.13C12,2.44,11.93,2.52,11.37,2.75Z"/><path class="cls-1" d="M13.62.57l.93.46-.17.18c-.25-.09-.49-.17-.71-.26-.06,0-.07-.11-.07-.17A.86.86,0,0,1,13.62.57Z"/><path class="cls-1" d="M14.2,2.16v.24l-.74-.06V2Z"/></g></g></svg>