<svg xmlns="http://www.w3.org/2000/svg" viewBox="0 0 13.55 14.08"><defs><style>.cls-1{fill:#00aeef;}</style></defs><title>asp</title><g id="Layer_2" data-name="Layer 2"><g id="Layer_1-2" data-name="Layer 1"><path class="cls-1" d="M12.64,1.18H8.32V0L0,1.11V12.94l8.32,1.14V12.87h4.32a.91.91,0,0,0,.91-.9V2.08A.91.91,0,0,0,12.64,1.18Zm-10,7.09-.17-.63H1.86l-.15.61-.49,0,.64-2.36.65,0,.71,2.46Zm1.47.1a1.59,1.59,0,0,1-.69-.18l.11-.47a1.4,1.4,0,0,0,.61.17c.26,0,.4-.1.4-.27s-.12-.26-.42-.37-.67-.38-.67-.75.34-.77.93-.79a1.54,1.54,0,0,1,.66.11l-.13.48A1.18,1.18,0,0,0,4.4,6.2c-.25,0-.36.12-.36.26s.14.23.46.36.67.41.67.79S4.83,8.4,4.14,8.37ZM7.37,7.18a1.39,1.39,0,0,1-1,.28l-.22,0v1l-.62,0V5.75a5.35,5.35,0,0,1,.85-.09,1.42,1.42,0,0,1,.89.19.79.79,0,0,1,.32.65A.87.87,0,0,1,7.37,7.18ZM13,12a.39.39,0,0,1-.39.39H8.32V1.7h4.32a.39.39,0,0,1,.39.39Z"/></g></g></svg>