<?xml version="1.0" encoding="utf-8"?>
<!-- Generator: Adobe Illustrator 21.0.0, SVG Export Plug-In . SVG Version: 6.00 Build 0)  -->
<svg version="1.1" id="Layer_1" xmlns="http://www.w3.org/2000/svg" xmlns:xlink="http://www.w3.org/1999/xlink" x="0px" y="0px"
	 viewBox="0 0 13.7 13.7" style="enable-background:new 0 0 13.7 13.7;" xml:space="preserve">
<style type="text/css">
	.st0{fill:#00AEEF;}
</style>
<g id="Layer_2">
	<g id="Layer_1-2">
		<path class="st0" d="M0,7c0-1.8,0-3.6,0-5.4c-0.1-0.7,0.4-1.4,1.2-1.5c0.1,0,0.2,0,0.3,0h10.8c0.7-0.1,1.4,0.5,1.5,1.2
			c0,0.1,0,0.2,0,0.2c0,3.6,0,7.2,0,10.8c0.1,0.7-0.5,1.4-1.2,1.4c-0.1,0-0.1,0-0.2,0H1.5c-0.7,0.1-1.4-0.5-1.5-1.2
			c0-0.1,0-0.2,0-0.2C0,10.6,0,8.8,0,7z M4,10.5h0.2c1.2,0,2.4,0,3.6,0c0.9,0,1.7-0.7,1.9-1.6C9.8,8,9.4,7.1,8.5,6.8c0,0,0,0,0-0.1
			l0.1,0.1c0.2-0.2,0.3-0.4,0.5-0.7c0.5-0.8,0.3-1.9-0.5-2.4C8.4,3.5,8.1,3.4,7.7,3.4c-1.1-0.1-2.3,0-3.4,0c-0.1,0-0.2,0-0.3,0
			L4,10.5z"/>
		<path class="st0" d="M5.1,9.5V7.2c0.9,0,1.8-0.1,2.6,0c0.6,0,1,0.5,1,1c0,0,0,0.1,0,0.1c0,0.6-0.4,1.1-1,1.1c0,0,0,0-0.1,0
			c-0.5,0-0.9,0-1.4,0L5.1,9.5z"/>
		<path class="st0" d="M5.1,6.3V4.1c0.9,0,1.8,0,2.6,0.1c0.4,0,0.6,0.4,0.6,0.9S8.2,6,7.8,6.1C7.6,6.2,7.4,6.3,7.2,6.3
			C6.5,6.3,5.8,6.3,5.1,6.3z"/>
	</g>
</g>
</svg>
