<svg xmlns="http://www.w3.org/2000/svg" viewBox="0 0 11.94 9.09"><defs><style>.cls-1{fill:#00aeef;}</style></defs><title>email</title><g id="Layer_2" data-name="Layer 2"><g id="Layer_1-2" data-name="Layer 1"><path class="cls-1" d="M10.48,0H2.67A2.67,2.67,0,0,0,0,2.67V6.42A2.67,2.67,0,0,0,2.67,9.09h6.6a2.67,2.67,0,0,0,2.67-2.67v-5A1.46,1.46,0,0,0,10.48,0Zm.79,7.63a.79.79,0,0,1-.79.79H2.67a2,2,0,0,1-2-2V2.67a2,2,0,0,1,2-2h6.6a2,2,0,0,1,2,2v5Z"/><path class="cls-1" d="M8.48,5.37a1.21,1.21,0,0,1,0-1.78l1.94-1.74a.33.33,0,1,0-.45-.5L6,5l-.79-.7h0l-.06,0L1.93,1.35a.33.33,0,1,0-.45.5l2,1.76a1.21,1.21,0,0,1,0,1.79l-2,1.85a.33.33,0,0,0,0,.47.34.34,0,0,0,.24.11A.33.33,0,0,0,2,7.73l3-2.79.81.72a.33.33,0,0,0,.44,0h0a1.21,1.21,0,0,1,1.64,0L10,7.74a.33.33,0,0,0,.46-.48Z"/></g></g></svg>