<?xml version="1.0" encoding="utf-8"?>
<!-- Generator: Adobe Illustrator 21.0.0, SVG Export Plug-In . SVG Version: 6.00 Build 0)  -->
<svg version="1.1" id="Layer_1" xmlns="http://www.w3.org/2000/svg" xmlns:xlink="http://www.w3.org/1999/xlink" x="0px" y="0px"
	 viewBox="0 0 14.7 14.7" style="enable-background:new 0 0 14.7 14.7;" xml:space="preserve">
<style type="text/css">
	.st0{fill:#00AEEF;}
</style>
<g id="Layer_2">
	<g id="Layer_1-2">
		<path class="st0" d="M0,14.7V0h14.7v14.7H0z M8.8,12.1L8.8,12.1L8.8,12.1C9,12.6,9.4,13,9.9,13.2c0.7,0.3,1.4,0.4,2.2,0.2
			c0.5-0.1,0.9-0.4,1.2-0.8c0.5-0.9,0.2-2.1-0.6-2.7c-0.4-0.3-0.9-0.5-1.4-0.7C11,9.1,10.8,9,10.7,8.8c-0.2-0.2-0.2-0.4-0.1-0.6
			C10.6,8,10.8,7.9,11,7.9C11.4,7.8,11.8,8,12,8.3l0.1,0.2l1-0.7c0,0,0-0.1,0-0.1c-0.2-0.3-0.4-0.5-0.6-0.6
			c-0.5-0.3-1.2-0.4-1.8-0.3C10,6.8,9.4,7.4,9.3,8c-0.2,0.7,0,1.5,0.6,2c0.3,0.3,0.7,0.5,1.1,0.7c0.3,0.1,0.6,0.3,0.9,0.4
			c0.2,0.1,0.4,0.4,0.3,0.7c0,0.2-0.2,0.4-0.5,0.5c-0.6,0.2-1.2,0-1.6-0.5l-0.2-0.3L8.8,12.1z M8,6.9c0-0.1,0-0.2-0.2-0.2
			c-0.4,0-0.7,0-1.1,0c-0.2,0-0.2,0-0.2,0.2c0,1.4,0,2.7,0,4.1c0,0.2,0,0.4,0,0.6c0,0.3-0.2,0.7-0.6,0.7c0,0,0,0,0,0
			c-0.3,0-0.6-0.1-0.8-0.3L5,11.6l-1.1,0.7c0.2,0.4,0.4,0.7,0.8,0.9c0.6,0.4,1.4,0.5,2.1,0.2c0.5-0.2,1-0.6,1.1-1.1
			C8,12,8,11.7,8,11.5"/>
	</g>
</g>
</svg>
