<?xml version="1.0" encoding="utf-8"?>
<!-- Generator: Adobe Illustrator 21.0.0, SVG Export Plug-In . SVG Version: 6.00 Build 0)  -->
<svg version="1.1" id="Layer_1" xmlns="http://www.w3.org/2000/svg" xmlns:xlink="http://www.w3.org/1999/xlink" x="0px" y="0px"
	 viewBox="0 0 17 16.3" style="enable-background:new 0 0 17 16.3;" xml:space="preserve">
<style type="text/css">
	.st0{fill:none;}
	.st1{fill:#00AEEF;}
	.st2{fill:#3FA9F5;}
</style>
<title>jquery</title>
<g id="Layer_2">
	<g id="Layer_1-2">
		<path class="st0" d="M2.2,2.5L2.2,2.5L1.5,3.3C1.1,3.7,0.8,4.2,0.6,4.7C0.2,5.7,0,6.7,0,7.7c0,0.4,0.1,0.9,0.2,1.3
			c0.3,1.5,1.1,2.9,2.1,4.1c1,1.1,2.1,1.9,3.5,2.5c0.4,0.2,0.9,0.4,1.4,0.5c0.6,0.1,1.1,0.2,1.7,0.2c0.6,0,1.3,0,1.9-0.1
			c0.7-0.1,1.4-0.3,2.1-0.6c1.4-0.7,2.6-1.8,3.4-3.2l0.1-0.3l0.1-0.3c0,0-0.1,0-0.1,0.1c-0.5,0.7-1.2,1.2-2,1.6
			c-1,0.5-2.1,0.7-3.2,0.8c-0.4,0-0.9,0-1.3-0.1c-0.4,0-0.8-0.1-1.3-0.2c-1-0.3-2-0.7-2.8-1.3c-1.5-1-2.7-2.3-3.4-4
			C1.9,7.9,1.6,7,1.5,6c0-0.4,0-0.9,0-1.3c0.1-0.5,0.2-1.1,0.4-1.6C2,2.9,2.1,2.7,2.2,2.5z M6.5,0.9l-0.7,1C5.3,2.6,5,3.5,5,4.3
			c0,0.5,0,1,0,1.4C5.2,6.9,5.8,8,6.6,8.8c0.6,0.6,1.2,1.1,2,1.5c0.4,0.2,0.9,0.4,1.4,0.5c0.4,0.1,0.7,0.1,1.1,0.1
			c0.6,0,1.3,0,1.9-0.1c1.6-0.3,2.9-1.3,3.7-2.7c0.1-0.2,0.2-0.4,0.3-0.6l0,0v0.1c-0.3,0.4-0.7,0.7-1.1,1c-1,0.7-2.2,1-3.4,0.9
			c-0.5,0-1-0.1-1.6-0.3C9.4,8.8,8.2,8,7.3,6.9C6.4,5.8,6,4.4,6,3c0-0.3,0-0.6,0.1-0.9C6.2,1.7,6.3,1.3,6.5,0.9z M10,0.2L9.8,0.5
			C9.1,1.3,9,2.4,9.2,3.3C9.4,4,9.8,4.7,10.3,5.2c1,1,2.3,1.4,3.7,1.2c0.8-0.1,1.5-0.5,2-1.1c0.1-0.2,0.3-0.4,0.4-0.6l0,0l0,0
			c-0.5,0.5-1.1,0.9-1.9,0.9c-0.6,0-1.2,0-1.8-0.3c-1.3-0.4-2.3-1.4-2.8-2.7C9.8,2,9.7,1.4,9.8,0.9C9.9,0.6,10,0.4,10,0.2z"/>
		<path class="st1" d="M2.2,2.5C2.1,2.7,2,2.9,1.9,3.1c-0.2,0.5-0.3,1-0.4,1.6c0,0.4,0,0.9,0,1.3c0.1,1,0.3,1.9,0.8,2.8
			c0.8,1.6,1.9,3,3.4,3.9c0.9,0.6,1.8,1,2.9,1.3c0.4,0.1,0.8,0.2,1.3,0.2c0.4,0,0.9,0.1,1.3,0.1c1.1,0,2.2-0.3,3.2-0.8
			c0.8-0.4,1.5-0.9,2-1.6c0,0,0-0.1,0.1-0.1l-0.1,0.3l-0.1,0.3c-0.8,1.4-1.9,2.5-3.4,3.2c-0.7,0.3-1.4,0.5-2.1,0.6
			c-0.6,0.1-1.3,0.1-1.9,0.1c-0.6,0-1.2-0.1-1.7-0.2c-0.5-0.1-0.9-0.3-1.4-0.5c-1.3-0.6-2.5-1.4-3.5-2.5c-1-1.2-1.8-2.6-2.1-4.1
			C0.1,8.6,0,8.2,0,7.7c-0.1-1,0.1-2.1,0.5-3c0.2-0.5,0.5-1,0.9-1.4L2.2,2.5L2.2,2.5z"/>
		<path class="st2" d="M6.5,0.9C6.3,1.3,6.2,1.7,6.1,2.1C6,2.4,6,2.7,6,3c0,1.4,0.4,2.8,1.3,3.9c0.9,1.1,2.1,2,3.4,2.4
			c0.5,0.2,1,0.3,1.6,0.3c1.2,0.1,2.4-0.2,3.4-0.9c0.4-0.3,0.8-0.6,1.1-1V7.6l0,0c-0.1,0.2-0.2,0.4-0.3,0.5c-0.7,1.4-2,2.4-3.6,2.7
			c-0.6,0.1-1.3,0.2-1.9,0.1c-0.4,0-0.7-0.1-1.1-0.1c-0.5-0.1-1-0.3-1.4-0.5c-0.8-0.4-1.4-0.9-2-1.5C5.8,8,5.2,6.9,5,5.8
			c-0.1-0.5-0.1-1-0.1-1.4C5,3.5,5.3,2.6,5.8,1.9L6.5,0.9z"/>
		<path class="st2" d="M10,0.2C9.9,0.4,9.9,0.6,9.8,0.9C9.7,1.4,9.8,2,10,2.5c0.4,1.3,1.4,2.3,2.7,2.7c0.6,0.2,1.2,0.3,1.8,0.3
			c0.7,0,1.4-0.3,1.9-0.9l0,0l0,0c-0.1,0.2-0.3,0.4-0.4,0.6c-0.5,0.6-1.2,1-2,1.1c-1.3,0.2-2.7-0.2-3.6-1.2C9.8,4.7,9.4,4,9.2,3.3
			c-0.3-1-0.1-2,0.5-2.8L10,0.2z"/>
	</g>
</g>
</svg>
