<?xml version="1.0" encoding="utf-8"?>
<!-- Generator: Adobe Illustrator 21.0.0, SVG Export Plug-In . SVG Version: 6.00 Build 0)  -->
<svg version="1.1" id="Layer_1" xmlns="http://www.w3.org/2000/svg" xmlns:xlink="http://www.w3.org/1999/xlink" x="0px" y="0px"
	 viewBox="0 0 165 36" style="enable-background:new 0 0 165 36;" xml:space="preserve">
<style type="text/css">
	.st0{fill:url(#SVGID_1_);}
	.st1{fill:none;}
	.st2{fill:#F9FCFA;}
	.st3{fill:#FAFCFA;}
	.st4{fill:#F9FCFB;}
	.st5{fill:#EBF9F8;}
	.st6{fill:#E7F9FD;}
	.st7{fill:#E9FBFC;}
	.st8{fill:#F9FDFC;}
	.st9{fill:#F6FBF8;}
	.st10{fill:#FBFEFD;}
</style>
<linearGradient id="SVGID_1_" gradientUnits="userSpaceOnUse" x1="32.153" y1="70.1483" x2="132.8564" y2="-30.5552" gradientTransform="matrix(1 0 0 -1 0 38)">
	<stop  offset="0" style="stop-color:#44A2ED"/>
	<stop  offset="1" style="stop-color:#44C6ED"/>
</linearGradient>
<path class="st0" d="M82.5,36.6c-27.3,0-54.6,0-81.8,0c-0.5,0-0.7-0.1-0.7-0.4c0-12,0-24,0-36c0-0.3,0.1-0.4,0.7-0.4
	c54.6,0,109.1,0,163.7,0c0.5,0,0.7,0.1,0.7,0.4c0,12,0,24,0,36c0,0.3-0.1,0.4-0.7,0.4C137.1,36.6,109.8,36.6,82.5,36.6z"/>
<g>
	<path class="st1" d="M106.5,20.8C106.5,20.8,106.5,20.8,106.5,20.8C106.5,20.8,106.5,20.8,106.5,20.8L106.5,20.8z"/>
	<path class="st2" d="M76.4,16.6c-0.5-0.3-1.1-0.2-1.5,0.2c-1.1,0.8-1.5,1.9-1.9,3c-0.3,0.9-0.9,1.6-1.7,2c0.1-1.1,0.5-2.1,0.7-3
		c0.1-0.5,0.4-0.9,0.8-1.2c1.5-1.3,2.7-2.9,3.5-4.7c0.2-0.5,0.3-0.9-0.2-1.3c-0.5-0.4-1-0.3-1.5,0.1c-0.3,0.3-0.6,0.6-0.8,1
		c-1.3,2.2-2.4,4.5-3,7c-0.2,0.8-0.6,1.4-1.4,2c0-0.2,0-0.4,0-0.5c0.2-1.3,0.8-2.6,1.5-3.7c0.3-0.4,0.1-0.5-0.3-0.6
		c-0.3-0.1-0.6,0-0.8,0.2c-0.2,0.4-0.5,0.3-0.9,0.2c-0.8-0.4-1.2-0.3-1.8,0.4c-0.4,0.4-0.7,0.8-0.9,1.2c-0.6,1.1-1.5,1.9-2.6,2.7
		c-0.2,0.2-0.5,0.3-0.8,0.4c-0.4,0.1-0.7,0-0.6-0.5c0.1-0.8,0.2-1.6,0.9-2.1c0.1-0.1,0.2-0.1,0.2-0.2c0-0.8,0.7-1.1,1.1-1.5
		c0.1-0.1,0.2-0.1,0.2-0.1c0.1,0,0.1,0.2,0.1,0.3c-0.1,0.2-0.2,0.4-0.3,0.6c-0.3,0.6-0.7,1.1-1.2,1.6c-0.4,0.3-0.2,0.5,0.2,0.7
		c0.3,0.2,0.6,0,0.8-0.2c0.6-0.7,1-1.6,1.2-2.5c0.1-0.5-0.2-0.9-0.5-1.1c-0.4-0.3-0.8-0.1-1.1,0.1c-0.8,0.5-1.4,1.1-1.8,2
		c-0.4,0.8-1.3,0.9-1.8,1.4c-0.1,0.1-0.2,0-0.3-0.1c-0.4-0.4-0.9-0.7-1.3-1.2c-0.5-0.6-0.4-1.1,0.3-1.5c0.7-0.5,1.5-0.6,2.3-0.8
		c0.6-0.1,0.5-0.3,0.4-0.7c-0.1-0.3-0.4-0.5-0.8-0.5c-0.8,0-1.6,0.3-2.2,0.8c-0.5,0.3-0.8,0.8-1.5,0.5c-0.2,0-0.4,0.1-0.5,0.3
		c-0.2,0.4-0.5,0.3-0.8,0.1c-0.4-0.2-0.9-0.4-1.3-0.1c-1.4,1.2-2.2,2.7-2.3,4.6c0,0.4,0.2,0.8,0.6,0.8c0.4,0.1,0.8,0.1,1.1-0.3
		c0.3-0.4,0.5-0.8,1-1.1c0.2,1.1,0.2,1.1,0.5,1.3c0.5,0.4,1.1,0.2,1.6-0.4c0.6-0.8,0.9-1.7,1.2-2.6c0.4,0.2,0.5,0.5,0.7,0.7
		c0.4,0.4,0.4,0.7-0.1,1c-0.4,0.2-0.7,0.5-1.1,0.8c-1.5,1.4-3,2.7-3.8,4.6c-0.4,1,0.1,1.8,1.2,1.8c0.3,0,0.7,0,1-0.1
		c2.1-0.8,3.7-2.3,4.6-4.3c0.4-0.8,0.5-1.7,0.2-2.5c-0.2-0.8-0.2-0.9,0.7-1.1c0,0.1,0,0.1,0,0.2c-0.2,0.9,0.1,1.6,0.9,2
		c0.8,0.4,1.4-0.1,2-0.6c0.4-0.3,0.7-0.8,1.1-1.2c0,0.3,0,0.5-0.1,0.7c-0.1,0.5,0,1,0.6,1.1c0.5,0.2,0.9,0.1,1.2-0.4
		c0.3-0.4,0.6-0.7,0.9-1.1c0.2,1.7,0.7,1.9,2,1c0.2-0.1,0.2-0.1,0.4,0.1c0.3,0.5,0.8,0.6,1.3,0.2c0.3-0.3,0.7-0.6,1-0.9
		c0.6,1,1,1.3,1.7,1c1.1-0.4,1.7-1.2,2.1-2.3c-0.7,0.5-1.2,1.2-2,1.5c-0.5,0.2-0.7,0.1-0.7-0.5c0-0.4,0-0.8,0.6-0.7
		c0.2,0,0.3,0,0.4-0.1c0.9-0.5,1.6-1.3,2-2.2C77.3,17.5,77.1,17,76.4,16.6z M75.7,12.1c-0.5,1.5-1.4,2.8-2.5,3.9
		C73.8,14.6,74.5,13.2,75.7,12.1z M55.7,18.4c-0.7,1.1-1.3,2.3-2.2,3.2c0-1.4,0.6-2.7,1.6-3.7c0.2-0.2,0.5-0.4,0.8-0.2
		C56.1,18,55.8,18.2,55.7,18.4z M57.9,19.3c-0.4,0.9-1,1.7-1.7,2.4c0.2-1.4,0.6-2.5,1.2-3.8C57.5,18.5,58.1,18.8,57.9,19.3z
		 M59.5,22.1c-0.2,1.9-1.4,3.2-2.7,4.3c-0.4,0.3-0.8,0.6-1.2,0.8c-0.2,0.1-0.6,0.4-0.8,0.1c-0.2-0.2,0-0.5,0.2-0.8
		c0.4-0.8,0.9-1.4,1.5-2.1c0.8-1,1.6-1.9,2.6-2.7c0.1-0.1,0.3-0.3,0.5-0.2C59.6,21.7,59.5,21.9,59.5,22.1z M68.9,18.3
		c-0.7,1.1-1.3,2.3-2.3,3.3c0-1.5,0.6-2.8,1.6-3.8c0.2-0.2,0.5-0.3,0.8-0.1C69.3,18,69,18.2,68.9,18.3z M76.3,17.6
		c-0.4,0.9-1.1,1.6-2,2.1c0.2-1,0.7-1.8,1.5-2.4c0.1-0.1,0.3-0.3,0.5-0.1C76.5,17.3,76.4,17.5,76.3,17.6z"/>
	<path class="st2" d="M104.9,21.9c-0.2-0.1-0.1-0.4-0.1-0.6c0.2-1.2,0.8-2.3,1.3-3.4c0.1-0.2,0.5-0.4,0.2-0.7
		c-0.3-0.2-0.8-0.2-1,0.2c-0.3,0.4-0.5,0.7-0.7,1.2c-0.1,0.3-0.2,0.6-0.5,0.7c-0.5,0.2-1,0.5-1.5,0.8c-0.2,0.2-0.4,0.1-0.6-0.1
		c-0.4-0.3-0.7-0.7-1-1c-0.6-0.6-0.7-1.1,0.1-1.5c0.7-0.4,1.4-0.6,2.2-0.8c0.2-0.1,0.6,0.1,0.6-0.3c0-0.4-0.1-0.8-0.5-0.9
		c-0.9-0.3-3.3,0.8-3.6,1.8c-0.1,0.2-0.1,0.5-0.1,0.6c0.6,1.1-0.2,1.4-0.9,1.7c-0.2,0.1-0.5,0.3-0.7,0.5l0,0c-0.2,0.1-0.4,0.1-0.5,0
		c-0.4-0.4-0.8-0.7-1.2-1.1c-0.6-0.6-0.5-1.1,0.2-1.6c0.7-0.4,1.5-0.6,2.3-0.7c0.6-0.1,0.5-0.3,0.4-0.7c-0.1-0.4-0.4-0.5-0.8-0.5
		c-0.8,0-1.5,0.4-2.2,0.7c-0.5,0.3-0.8,0.8-1.5,0.5c-0.2-0.1-0.4,0.1-0.5,0.3c-0.2,0.4-0.5,0.3-0.8,0.1c-0.5-0.2-1-0.4-1.4,0
		c-1.2,1.1-2,2.5-2.2,4.2c0,0.5,0,0.9,0.6,1.1c0.6,0.2,0.9,0,1.3-0.5c0.3-0.3,0.5-0.7,0.9-1.1c0,0.2,0,0.4,0,0.5c0,0.4,0,0.8,0.5,1
		c0.5,0.2,0.9,0.1,1.3-0.3c0.3-0.4,0.6-0.8,0.8-1.3c0.2-0.5,0.3-1,0.6-1.4c0.4,0.2,0.5,0.6,0.8,0.8c0.3,0.3,0.3,0.5-0.1,0.8
		c-0.6,0.5-1.3,1-1.8,1.5c-1.3,1.2-2.5,2.5-3.2,4.2c-0.4,0.9,0.1,1.6,1,1.7c0.4,0.1,0.7,0,1-0.1c0.6-0.2,1.2-0.5,1.8-0.9
		c0.2-0.1,0.3-0.3,0.5,0.1c0.5,0.9,1.3,1.1,2.3,0.8c2.2-0.8,3.7-2.3,4.6-4.4c0.3-0.7,0.5-1.5,0.2-2.3c-0.3-1-0.1-1.2,0.9-1.5
		c-0.1,0.6-0.2,1.2,0,1.7c0.2,0.7,0.8,1,1.4,0.6c0.5-0.4,1-0.8,1.1-1.5c-0.3,0.3-0.6,0.6-1,0.9C105.3,21.9,105.1,22.1,104.9,21.9z
		 M93.5,18.3c-0.7,1.2-1.3,2.3-2.3,3.3c0-1.5,0.6-2.8,1.6-3.8c0.2-0.2,0.5-0.2,0.7-0.1C93.8,17.9,93.6,18.1,93.5,18.3z M95.6,19.2
		c-0.3,0.9-0.9,1.7-1.7,2.3c0.1-1.3,0.5-2.6,1.2-3.6C95.3,18.5,95.8,18.8,95.6,19.2z M98.6,20.6c0.5-0.3,0.9-0.6,1.4-0.8
		c0.4-0.2,0.6-0.2,0.9,0.2c0.7,0.8,0.7,0.8-0.2,1.4c-0.6,0.5-1.2,1-2,1.7c0-0.8,0-1.4-0.3-2C98.3,20.8,98.4,20.7,98.6,20.6z
		 M93.2,27.3c-0.2,0.1-0.5,0.3-0.7,0.1c-0.2-0.2-0.1-0.5,0.1-0.7c1.1-2,2.7-3.7,4.6-5.3c0.1,0.5,0.1,0.9-0.1,1.4
		C96.5,24.8,95.1,26.3,93.2,27.3z M100.4,25.1c-0.8,1-1.7,1.7-2.8,2.3c-0.2,0.1-0.4,0.2-0.6,0.1c-0.2-0.2-0.1-0.4,0-0.6
		c1.1-2,2.6-3.6,4.3-5.1c0.3-0.2,0.5-0.1,0.5,0.3C101.6,23.1,101.1,24.2,100.4,25.1z"/>
	<path class="st3" d="M89,22c0.9-3.7,2.2-7.2,4.4-10.4c0.3-0.5,0.2-0.6-0.3-0.7c-0.7-0.2-1.3,0.1-1.8,0.5c-0.6,0.5-1.2,1.1-1.7,1.8
		c-1.5,2-2.8,4.1-4.1,6.2l0,0L85,20.6c0-0.4,0.1-0.8,0.4-1.1c0.4-1.2,1-2.3,1.6-3.5c0.6-1.4,1.3-2.8,1.5-4.3c0.2-1.8-0.9-3-2.7-2.8
		c-3.4,0.4-6.5,3.9-6.3,7.3c0.1,1.3,0.6,2.2,1.7,2.8c0.6,0.3,1.3,0.5,2,0.6c0.6,0,0.6,0.3,0.4,0.7c-0.3,0.6-0.6,1.3-0.8,1.9
		c-0.5,1.3-1.1,2.6-1.3,4c-0.2,0.9,0.2,1.4,1,1.6c0.3,0.1,0.5,0,0.6-0.4c0.1-0.9,0.4-1.7,0.8-2.6c0.9-2.1,1.9-4.1,3.1-6
		c1-1.6,1.9-3.3,3.2-4.7c0.2-0.5,0.6-0.8,1.1-1.2c-0.1,0.6-0.4,1.1-0.8,1.6l0,0c0,0,0,0,0,0c0,0.1-0.1,0.2-0.1,0.3
		c-0.9,1.9-1.8,3.9-2.5,5.9c-0.2,0.5-0.2,0.9-0.3,1.4c-0.1,0.6,0.5,1.1,1.2,1.2c0.8,0,0.3-0.6,0.4-0.9C89,22.2,89,22.1,89,22z
		 M83.7,19.1c-1.7,0.3-3.5-1.1-3.5-2.9c0-2.9,2.8-6.4,5.7-7c1-0.2,1.6,0.2,1.5,1.3c-0.1,0.9-0.4,1.7-0.8,2.5
		c-0.8,1.9-1.7,3.8-2.6,5.6C84,18.9,84,19.1,83.7,19.1z"/>
	<path class="st2" d="M144.6,20.3c0.7-0.5,1.5-0.8,2.3-1.2c-0.3-0.2-0.8-0.3-1.1-0.1c-0.7,0.2-1.3,0.6-1.8,1
		c-0.2,0.1-0.3,0.3-0.5,0.1c-0.4-0.4-0.9-0.7-1.3-1.1c-0.6-0.6-0.5-1.1,0.2-1.5c0.7-0.5,1.6-0.6,2.4-0.8c0.4-0.1,0.4-0.2,0.4-0.4
		c0-0.6-0.5-0.9-1.4-0.8c-0.8,0.2-1.6,0.6-2.3,1.1c-0.2,0.2-0.3,0.3-0.6,0.1c-0.7-0.5-1.3-0.3-1.9,0.2c-1,0.8-1.5,2-1.8,3.2
		c-0.2,0.7-0.4,1-1.1,1.2c0.3-1.1,0.8-2.2,1.3-3.3c0.2-0.5,0-0.8-0.5-0.9c-0.4-0.1-0.7,0-1,0.3c-0.8,0.7-1.5,1.6-2.3,2.4
		c0.2-0.9,0.6-1.7,1-2.5c0.1-0.2,0.3-0.4,0.1-0.6c-0.2-0.2-0.5-0.1-0.7,0c-0.2,0.1-0.4,0.2-0.5,0.4c-0.9,1.4-1.6,3.1-1.9,4.8
		c0,0,0,0,0,0.1c-0.1,0.3,0.2,0.6,0.5,0.7c0.3,0.1,0.6,0.1,0.8-0.3c0.2-0.5,0.5-0.9,0.7-1.3c0.6-1,1.3-2,2.3-2.7
		c0,0.2-0.1,0.4-0.2,0.6c-0.4,0.9-0.9,1.8-1,2.9c0,0.3-0.1,0.6,0.3,0.8c0.4,0.2,0.8,0.3,1.2,0c0.2-0.1,0.3-0.3,0.4-0.4
		c0.2-0.3,0.4-0.3,0.6,0c0.3,0.5,0.8,0.6,1.4,0.5c0.8-0.2,1.9-1.3,2.1-2.3c-0.7,0.6-1.2,1.3-2,1.6c-0.3,0.1-0.6,0-0.6-0.3
		c0-0.3-0.1-0.8,0.3-0.8c0.6,0,1-0.4,1.4-0.7c0.5-0.3,0.7-1.3,1.3-1.1c0.5,0.2,0.8,0.9,1.2,1.4c0.3,0.3,0.2,0.5-0.1,0.8
		c-0.7,0.5-1.4,1.1-2,1.7c-1.2,1.1-2.3,2.4-3,3.9c-0.4,0.9,0.1,1.7,1.1,1.7c0.4,0,0.7,0,1-0.2c2.1-0.8,3.7-2.3,4.6-4.4
		c0.3-0.8,0.5-1.7,0.2-2.5C143.9,20.8,144.1,20.6,144.6,20.3z M138.6,19.8c0.1-1.2,1.1-2.5,2.1-2.7
		C140.3,18.3,139.6,19.1,138.6,19.8z M141.6,25c-0.8,1-1.7,1.8-2.9,2.3c-0.2,0.1-0.4,0.3-0.6,0.1c-0.2-0.2-0.1-0.5,0.1-0.7
		c0.8-1.5,1.9-2.7,3-3.9c0.4-0.4,0.8-0.8,1.2-1.1c0.1-0.1,0.2-0.2,0.4-0.2c0.1,0,0.2,0.1,0.1,0.2C142.9,23.1,142.4,24.1,141.6,25z"
		/>
	<path class="st4" d="M54.5,14.9c0.5-0.7,1.1-1.5,0.9-2.4c-0.3-1.8-1.2-3.1-3.3-3.3c-1.4-0.1-2.9,0.2-4.2,0.9
		c-1.5,0.8-2.7,1.7-3.4,3.4c-0.3,0.8-0.2,1.3,0.3,1.7c-0.4-1,0.2-1.6,0.8-2.2c1.3-1.3,3-1.9,4.8-2.3c0.9-0.2,1.9-0.3,2.9,0
		c1,0.3,1.4,0.9,1,1.9c-0.7,1.7-2,3.1-3.5,4.1c-0.5,0.4-1.1,0.8-1.9,0.8c0.3-0.5,0.5-1,0.7-1.5c0.2-0.6,0-1.1-0.4-1.5
		c-0.3-0.4-0.7-0.2-1.1-0.1c-1.1,0.3-2,1.1-2.4,2.1c-0.4,0.9-0.2,1.6,0.7,2.1c0.5,0.2,0.5,0.5,0.3,0.9c-0.4,0.9-0.7,1.9-0.7,2.9
		c0,0.6,0.2,1,0.8,1.3c-0.1-1.7,0.7-3.1,1.2-4.5c0.1-0.3,0.4-0.4,0.7-0.5C51.2,18.2,53.2,17,54.5,14.9z M48.7,15.5
		c-0.4,0.7-0.7,1.4-1.1,2c-0.1,0.3-0.3,0.4-0.6,0.4c-0.9,0-1.2-0.5-0.8-1.2c0.4-0.8,1.2-1.4,2.1-1.6c0.1,0,0.3-0.1,0.4,0
		C48.9,15.2,48.7,15.3,48.7,15.5z"/>
	<path class="st2" d="M109.1,16.9c0.5-1.7,1-3.4,1.9-4.9c0.1-0.1,0.2-0.3,0.1-0.5c-0.1-0.2-0.3-0.1-0.5-0.1c-0.8,0-1,0.7-1.2,1.2
		c-1.2,2.6-1.8,5.5-3,8.1l0,0l0,0l0,0l0,0l0,0l0,0c0,0,0,0,0,0l0,0c0.2,0.3,0,0.6-0.1,0.8c-0.4,1.6-0.9,3.2-1,4.8
		c0,0.6-0.1,1.4,0.7,1.6c0.8,0.3,1.1-0.4,1.4-0.9c1.2-1.8,1.8-3.8,2.2-5.8c0.2-1.4,0.4-2.8-0.6-4C109,17.3,109,17.1,109.1,16.9z
		 M107,26.8c-0.2,0.3-0.4,0.5-0.7,0.6c0.6-3.2,1.6-6.2,2.5-9.3c0.4,0.2,0.5,0.5,0.5,0.8C109.1,21.7,108.6,24.4,107,26.8z"/>
	<path class="st2" d="M133.1,16.4c-0.2-0.2-0.5-0.1-0.8,0.1c-0.2,0.2-0.4,0.4-0.6,0.6c-0.5,0.7-0.9,1.4-1.4,2.1
		c-0.5,0.7-0.9,1.6-1.6,2.2c0.2-1.4,0.6-2.8,1.3-4c0.3-0.5,0.1-0.7-0.4-0.7c-0.3-0.1-0.6,0.1-0.8,0.4c-0.5,1-1,1.9-1.1,3
		c0.5-0.2,0.4-0.7,0.9-0.9c-0.5,0.9-0.4,1.9-1.2,2.5l0.1-0.8c-0.4,0.2-0.5,0.6-0.9,0.7c0.2-1.4,0.7-2.8,1.5-4
		c0.3-0.5,0.1-0.7-0.4-0.8c-0.3,0-0.5,0.1-0.6,0.3c-0.2,0.3-0.4,0.3-0.6,0.1c-1-0.5-1.3-0.5-2.2,0.7c-0.2,0.3-0.2,0.6-0.7,0.3
		c-0.4-0.2-0.9,0-1.3,0c-0.3,0-0.4-0.1-0.3-0.4c0.7-1.9,1.3-3.8,2.2-5.6c0.1-0.2,0.4-0.4,0.2-0.7c-0.2-0.2-0.5-0.1-0.8,0.1
		c-0.5,0.3-0.8,0.9-1,1.4c-0.8,1.5-1.3,3.2-1.9,4.8c-0.2,0.5-0.5,0.8-1,0.8c-0.2,0-0.4,0.2-0.5,0c-0.2-0.2,0-0.4,0.1-0.6
		c0.4-1.3,1-2.6,1.3-3.9c0-0.1,0-0.2,0-0.4c0-0.8-0.7-1.4-1.5-1.4c-1.2,0-2.2,0.6-3,1.4c-1.3,1.1-2.1,2.7-2.3,4.3l0,0l0,0l0.1,0l0,0
		h0h0.3l0,0l0.3,0l0,0l0,0c0.2-0.4,0.3-0.9,0.5-1.3c0.8-1.5,1.8-2.8,3.4-3.5c0.3-0.1,0.6-0.2,0.9,0c0.3,0.2,0.1,0.6,0,0.8
		c-0.5,1.7-1.3,3.3-1.9,5c-0.1,0.3-0.3,0.4-0.6,0.5c-1.2,0.5-2.4,0.9-3.5,1.7c-0.4,0.2-0.7,0.5-0.8,1c-0.1,0.2,0,0.4,0.2,0.5
		c0.3,0.2,0.3-0.1,0.4-0.2c1-1.1,2.4-1.5,3.9-2.1c-0.3,0.8-0.5,1.4-0.7,2.1c-0.2,0.6-0.3,1.2-0.4,1.8c0,0.5,0.3,0.8,0.7,0.9
		c0.5,0.1,0.4-0.4,0.5-0.6c0.5-1.3,0.9-2.6,1.3-3.9c0.2-0.7,0.6-0.9,1.2-1c0.5-0.1,0.6,0,0.4,0.5c-0.4,1.3-0.8,2.7-1.2,4
		c-0.2,0.7-0.4,1.4-0.4,2.1c0,0.6,0.3,0.9,0.8,1c0.5,0.1,0.4-0.4,0.5-0.7c0.6-2.2,1.1-4.4,1.7-6.6c0.1-0.3,0-0.7,0.4-0.7
		c0.6-0.1,1.1-0.3,1.8-0.3c-0.4,0.9-0.8,1.8-0.8,2.7c-0.1,0.5,0.1,0.9,0.6,1.1c0.5,0.2,0.9,0.1,1.2-0.3c0.3-0.4,0.6-0.8,1-1.2
		c0.1,1.3,0.3,1.6,1.2,1.5c0.4,0,0.6-0.4,0.9-0.6c0.5,0.9,0.7,0.9,2.1-0.2c0,0.7-0.3,1.3-0.4,1.9c-0.2,1.1-0.5,2.1-0.7,3.2
		c-0.1,0.6,0.3,0.7,0.7,0.8c0.5,0.1,0.4-0.3,0.5-0.6c0.7-3.5,1.6-6.9,3.5-9.9C133.1,16.9,133.4,16.7,133.1,16.4z M126.1,18.3
		c-0.7,1.2-1.3,2.3-2.3,3.3c0-1.5,0.6-2.8,1.6-3.8c0.2-0.2,0.5-0.3,0.8-0.1c0,0,0,0,0,0C126.5,17.9,126.2,18.2,126.1,18.3z"/>
	<path class="st5" d="M106,16.8c0.8,0.2,0.8-0.5,1.2-0.9c0.1-0.1,0.3-0.3,0.2-0.5c-0.1-0.2-0.3-0.2-0.6-0.2c-0.6,0-0.8,0.5-1.1,1.1
		C105.6,16.6,105.7,16.7,106,16.8z"/>
	<path class="st6" d="M113.4,18L113.4,18c-0.8,0.1-1.7,0.2-2.5,0.2c-0.2,0-0.4,0-0.4,0.3c0,0.3,0.2,0.3,0.5,0.3c0.5,0,1-0.1,1.5-0.2
		c0.5,0,1,0,1.1-0.7l0,0L113.4,18z"/>
	<path class="st7" d="M113.9,18L113.9,18C113.9,18,113.9,18,113.9,18c0.2,0.1,0.3,0.3,0.2,0.5c-0.1,0.2,0.1,0.2,0.2,0.2
		s0.2,0,0.3-0.1l0,0c0.1-0.1,0.1-0.2,0-0.3c-0.2-0.1-0.3-0.2-0.5-0.3l0,0L113.9,18z"/>
</g>
<g>
	<path class="st8" d="M38.8,8.2c0-1,0-1-1-1c-6.7,0-13.4,0-20.1,0c-0.6,0-0.8,0.1-0.8,0.7c0,6.7,0,13.5,0,20.2
		c0,0.6,0.2,0.8,0.8,0.8c3.4,0,6.7,0,10.1,0c3.4,0,6.8,0,10.2,0c0.6,0,0.8-0.2,0.8-0.8C38.8,21.5,38.8,14.9,38.8,8.2z M37.9,27.3
		c0,0.6-0.1,0.8-0.7,0.8c-6.2,0-12.4,0-18.6,0c-0.5,0-0.7-0.1-0.7-0.7c0-6.2,0-12.4,0-18.6c0-0.6,0.2-0.7,0.7-0.7c3.1,0,6.2,0,9.3,0
		s6.2,0,9.3,0c0.6,0,0.8,0.1,0.8,0.7C37.9,15,37.9,21.2,37.9,27.3z"/>
	<path class="st9" d="M24.6,21.7c-1.1-1.1-2.2-2.2-3.3-3.3c-0.1-0.1-0.2-0.2-0.3-0.2c-0.2,0.1-0.4,0.2-0.5,0.4
		c-0.2,0.2,0,0.4,0.2,0.5c0.9,0.9,1.7,1.7,2.6,2.6c0.4,0.3,0.3,0.5,0,0.8c-0.8,0.8-1.7,1.7-2.5,2.5c-0.2,0.2-0.4,0.4-0.1,0.7
		c0.3,0.3,0.5,0.2,0.7-0.1c1.1-1.1,2.1-2.1,3.2-3.2C24.8,22.2,24.9,22,24.6,21.7z"/>
	<path class="st10" d="M29.2,25.2c-0.8,0-1.5,0-2.3,0c-0.7,0-1.5,0-2.2,0c-0.3,0-0.5,0.1-0.5,0.4c0,0.4,0.2,0.5,0.5,0.5
		c1.5,0,3,0,4.4,0c0.4,0,0.4-0.2,0.4-0.5C29.6,25.3,29.5,25.2,29.2,25.2z"/>
</g>
</svg>
