<svg xmlns="http://www.w3.org/2000/svg" viewBox="0 0 11.59 14.29"><defs><style>.cls-1{fill:#00aeef;}</style></defs><title>mac</title><g id="Layer_2" data-name="Layer 2"><g id="Layer_1-2" data-name="Layer 1"><path id="Apple" class="cls-1" d="M6.53,1.08A3.18,3.18,0,0,1,8.63,0a3.14,3.14,0,0,1-.74,2.28,2.64,2.64,0,0,1-2.11,1A3,3,0,0,1,6.53,1.08Zm4.07,11.43c-.6.87-1.21,1.74-2.18,1.76s-1.26-.57-2.35-.57-1.43.55-2.33.58S2.1,13.35,1.5,12.48c-1.22-1.77-2.16-5-.9-7.2A3.47,3.47,0,0,1,3.54,3.49c.92,0,1.79.62,2.35.62s1.62-.77,2.72-.65a3.32,3.32,0,0,1,2.61,1.41A3.24,3.24,0,0,0,9.68,7.59a3.15,3.15,0,0,0,1.91,2.89A8,8,0,0,1,10.61,12.51Z"/></g></g></svg>