<svg xmlns="http://www.w3.org/2000/svg" viewBox="0 0 14.14 14.14"><defs><style>.cls-1{fill:#00aeef;}</style></defs><title>phone</title><g id="Layer_2" data-name="Layer 2"><g id="Layer_1-2" data-name="Layer 1"><path class="cls-1" d="M10,0H4.1a1,1,0,0,0-1,1V13.1a1,1,0,0,0,1,1H10a1,1,0,0,0,1-1V1A1,1,0,0,0,10,0ZM3.53,1.89H10.6v9H3.53ZM4.1.47H10A.57.57,0,0,1,10.6,1v.38H3.53V1A.57.57,0,0,1,4.1.47ZM10,13.66H4.1a.57.57,0,0,1-.57-.57V11.31H10.6V13.1A.57.57,0,0,1,10,13.66Z"/><path class="cls-1" d="M7.07,11.54a.94.94,0,1,0,.94.94A.94.94,0,0,0,7.07,11.54Zm0,1.41a.47.47,0,1,1,.47-.47A.47.47,0,0,1,7.07,13Z"/><path class="cls-1" d="M6.13,1.18h.94a.24.24,0,0,0,0-.47H6.13a.24.24,0,1,0,0,.47Z"/><path class="cls-1" d="M7.77,1.18H8A.24.24,0,1,0,8,.71H7.77a.24.24,0,1,0,0,.47Z"/><path class="cls-1" d="M13.34,1.08a.24.24,0,0,0-.33.33A2.26,2.26,0,0,1,13,4.6a.24.24,0,0,0,.17.4.23.23,0,0,0,.17-.07A2.73,2.73,0,0,0,13.34,1.08Z"/><path class="cls-1" d="M12.35,1.61a.24.24,0,0,0-.33.33,1.55,1.55,0,0,1,0,2.19.24.24,0,0,0,.33.33,2,2,0,0,0,0-2.85Z"/><path class="cls-1" d="M1.13,1.41A.24.24,0,0,0,.8,1.08a2.73,2.73,0,0,0,0,3.86.24.24,0,1,0,.33-.33A2.26,2.26,0,0,1,1.13,1.41Z"/><path class="cls-1" d="M2.12,1.55a.24.24,0,0,0-.33,0,2,2,0,0,0,0,2.85.24.24,0,1,0,.33-.33,1.55,1.55,0,0,1,0-2.19A.24.24,0,0,0,2.12,1.55Z"/></g></g></svg>