<svg xmlns="http://www.w3.org/2000/svg" viewBox="0 0 15.38 15.37"><defs><style>.cls-1{fill:#00aeef;}</style></defs><title>photoshop</title><g id="Layer_2" data-name="Layer 2"><g id="Layer_1-2" data-name="Layer 1"><path class="cls-1" d="M10.18,10.41A3.39,3.39,0,0,1,8.69,10l-.31,1.24a3.93,3.93,0,0,0,1.8.39c1.6,0,2.42-.76,2.42-1.81,0-.82-.46-1.36-1.52-1.72-.68-.24-.9-.38-.9-.64s.24-.46.66-.46a2.74,2.74,0,0,1,1.21.32l.31-1.2a3.73,3.73,0,0,0-1.58-.32c-1.38,0-2.27.79-2.27,1.83,0,.66.43,1.29,1.59,1.68.65.22.82.35.82.64S10.71,10.41,10.18,10.41Z"/><path class="cls-1" d="M4.49,8.76a4.56,4.56,0,0,0,.59,0A3.56,3.56,0,0,0,7.58,8a2.44,2.44,0,0,0,.71-1.83,2.23,2.23,0,0,0-.82-1.78,3.65,3.65,0,0,0-2.35-.62,14.27,14.27,0,0,0-2.35.16v7.6H4.49V8.76Zm0-3.62a2.77,2.77,0,0,1,.71-.07c.87,0,1.36.42,1.36,1.13S6,7.45,5.07,7.45a2.81,2.81,0,0,1-.58,0V5.14Z"/><path class="cls-1" d="M0,0V15.37H15.38V0ZM14.42,14.42H1V1H14.42Z"/></g></g></svg>