<?xml version="1.0" encoding="utf-8"?>
<!-- Generator: Adobe Illustrator 21.0.0, SVG Export Plug-In . SVG Version: 6.00 Build 0)  -->
<svg version="1.1" id="Layer_1" xmlns="http://www.w3.org/2000/svg" xmlns:xlink="http://www.w3.org/1999/xlink" x="0px" y="0px"
	 viewBox="0 0 19.1 9.3" style="enable-background:new 0 0 19.1 9.3;" xml:space="preserve">
<style type="text/css">
	.st0{fill:#00AEEF;}
</style>
<g id="Layer_1-2">
	<path class="st0" d="M9.6,0c0.4,0,0.9,0,1.3,0.1l1,0.1l0.8,0.1c0.5,0.1,1,0.2,1.4,0.3c0.4,0.1,0.7,0.2,1.1,0.3
		C15.6,1,16,1.2,16.4,1.4c0.3,0.1,0.5,0.3,0.8,0.4c0.3,0.2,0.5,0.3,0.7,0.5c0.2,0.2,0.4,0.4,0.6,0.6l0.2,0.2
		c0.1,0.2,0.2,0.3,0.3,0.5c0.1,0.2,0.2,0.5,0.2,0.7c0,0.2,0,0.4,0,0.6c0,0.1,0,0.3-0.1,0.4c-0.1,0.3-0.2,0.5-0.4,0.7l-0.2,0.2
		C18.3,6.6,18,6.8,17.8,7c-0.3,0.2-0.5,0.4-0.8,0.6c-0.3,0.2-0.6,0.3-1,0.4c-0.4,0.2-0.8,0.3-1.2,0.4c-0.4,0.1-0.8,0.2-1.3,0.3
		L12.5,9l-0.8,0.1l-0.9,0.1h-0.6c-0.5,0-0.9,0-1.4,0H8.2H7.6L7,9.1L6,8.9L5.1,8.7c-0.5-0.1-1-0.3-1.5-0.5C3.3,8.1,3,8,2.7,7.8
		C2.4,7.7,2.1,7.5,1.9,7.3L1.5,7.1C1.3,6.9,1.1,6.7,0.9,6.5L0.7,6.4C0.5,6.2,0.4,5.9,0.3,5.7C0.2,5.6,0.1,5.4,0.1,5.3
		C0,4.9,0,4.5,0.1,4.1c0.1-0.3,0.2-0.5,0.3-0.8c0.1-0.1,0.2-0.3,0.3-0.4C0.9,2.7,1,2.5,1.2,2.4l0.4-0.3c0.2-0.2,0.5-0.3,0.8-0.5
		l0.5-0.3C3.2,1.2,3.6,1,4,0.9c0.5-0.2,0.9-0.3,1.4-0.4c0.4-0.1,0.8-0.2,1.3-0.2l1-0.1L8.5,0H9.6z M3.7,2.4c0,0.1-0.1,0.3-0.1,0.4
		L3.4,3.6L3.2,4.4L3.1,5.2L2.9,6L2.8,6.8L2.7,7.2v0.3h1.1L4,6.1h1c0.3,0,0.5,0,0.8-0.1C6,6,6.3,5.9,6.5,5.8c0.2-0.1,0.4-0.3,0.6-0.5
		C7.3,5,7.4,4.8,7.5,4.5c0-0.1,0.1-0.2,0.1-0.4c0.1-0.2,0.1-0.5,0-0.8C7.5,3.2,7.4,3,7.3,2.9C7.1,2.7,6.9,2.5,6.6,2.5
		C6.4,2.4,6.1,2.4,5.9,2.4L3.7,2.4L3.7,2.4z M13,6.1h0.8c0.3,0,0.6,0,0.9,0c0.2,0,0.4-0.1,0.6-0.2c0.6-0.2,1-0.7,1.2-1.3
		c0.1-0.3,0.2-0.7,0.1-1c0-0.3-0.1-0.5-0.3-0.7c-0.2-0.2-0.4-0.3-0.6-0.4c-0.3-0.1-0.5-0.1-0.8-0.1h-2.2l-0.1,0.2l-0.2,0.8l-0.2,0.8
		L12,5l-0.1,0.8l-0.2,0.9l-0.1,0.5l-0.1,0.3h1.1V7.3l0.2-0.9L13,6.1z M9.1,3.2h1c0.1,0,0.2,0,0.3,0c0.1,0,0.2,0.1,0.2,0.3
		c0,0,0,0.1,0,0.1c0,0.1,0,0.2-0.1,0.3l-0.2,0.8l-0.2,1V6h1.1v0l0.1-0.4l0.2-0.8l0.2-1.1c0-0.2,0-0.4,0-0.5c0-0.1,0-0.2-0.1-0.3
		c-0.1-0.2-0.3-0.3-0.5-0.4c-0.2-0.1-0.5-0.1-0.8-0.1H9.3l0.3-1.3H8.4c0,0.1,0,0.1,0,0.2L8.3,2.1L8.1,2.8L7.9,3.7L7.8,4.4L7.6,5.4
		L7.4,6c0,0,0,0.1,0,0.1h1.1c0,0,0-0.1,0-0.1l0.2-0.8l0.2-0.8L9,3.5L9.1,3.2z"/>
	<path class="st0" d="M4.2,5.3l0.4-2.1h1c0.2,0,0.4,0,0.5,0.1c0.2,0.1,0.3,0.2,0.3,0.4c0,0.2,0,0.3,0,0.5c0,0.1-0.1,0.3-0.1,0.4
		C6.2,4.8,6.1,5,6,5.1C5.8,5.2,5.7,5.2,5.5,5.3C5.4,5.3,5.2,5.3,5,5.3L4.2,5.3L4.2,5.3z"/>
	<path class="st0" d="M13.5,3.2h0.9c0.2,0,0.3,0,0.5,0.1c0.1,0,0.2,0.1,0.3,0.2c0.1,0.1,0.1,0.2,0.1,0.3c0,0.2,0,0.4-0.1,0.6v0.1
		c-0.1,0.2-0.2,0.3-0.3,0.4c-0.1,0.1-0.3,0.2-0.5,0.2c-0.2,0-0.3,0.1-0.5,0.1h-0.8L13.5,3.2z"/>
</g>
</svg>
