<svg xmlns="http://www.w3.org/2000/svg" viewBox="0 0 19.56 14.67"><defs><style>.cls-1{fill:#00aeef;fill-rule:evenodd;}</style></defs><title>sass</title><g id="Layer_2" data-name="Layer 2"><g id="Layer_1-2" data-name="Layer 1"><path class="cls-1" d="M0,5.69A6.67,6.67,0,0,1,3.28,1.88,13.35,13.35,0,0,1,6.71.32,6.61,6.61,0,0,1,10.52.24a2.46,2.46,0,0,1,1.54,1.1,2.41,2.41,0,0,1,.06,2.14A4.86,4.86,0,0,1,9,6.36,6.29,6.29,0,0,1,6,6.7,2,2,0,0,1,4.69,6a1.46,1.46,0,0,1-.19-.39.15.15,0,0,1,0-.14.15.15,0,0,1,.14,0A2.66,2.66,0,0,0,7.36,6a5.5,5.5,0,0,0,3.11-1.72,2.77,2.77,0,0,0,.75-1.44,1.15,1.15,0,0,0-.89-1.41A4.58,4.58,0,0,0,8,1.3,11.43,11.43,0,0,0,2.65,4a3.27,3.27,0,0,0-1.1,1.65A2,2,0,0,0,2.3,7.75c.52.46,1.07.88,1.61,1.32.22.18.42.37.66.58L5.67,9c.19-.1.38-.19.56-.31a4.81,4.81,0,0,0,.4-.33l1-.83.06,0a.88.88,0,0,1,.88,0c.29.19.28.52.28.83,0,.08,0,.16,0,.26l.13,0c.38-.08.58.12.48.49-.15.61-.31,1.21-.45,1.82a3,3,0,0,0,0,.49l.06,0A4.08,4.08,0,0,0,9.25,11Q10,9.26,10.82,7.49c.07-.15.07-.33.14-.48s.14-.22.23-.24a3.09,3.09,0,0,1,.75-.06c.25,0,.32.14.23.37A2.36,2.36,0,0,0,12,8.52c.05.21.14.41.24.68a11.91,11.91,0,0,0,1.24-2.51c0-.17.13-.41.26-.47a1.15,1.15,0,0,1,1,0,.29.29,0,0,1,.09.25c0,.25-.15.5-.19.75a2.3,2.3,0,0,0,.43,1.63l.32-.13a3.57,3.57,0,0,1,3.23.24,1.86,1.86,0,0,1,.89,2,1.27,1.27,0,0,1-.84.86c-.06,0-.13,0-.2,0a.85.85,0,0,1,.1-.16,3.21,3.21,0,0,0,.4-.37,1.1,1.1,0,0,0-.24-1.44,2.32,2.32,0,0,0-1.32-.62,3.78,3.78,0,0,0-2.11.18l.08.24A1.31,1.31,0,0,1,15,11a2.71,2.71,0,0,1-1.2.69c-.46.13-.73-.11-.69-.58a2.11,2.11,0,0,1,.55-1.18c.15-.18.32-.33.47-.5a.23.23,0,0,0,.05-.18c-.17-.45-.34-.89-.52-1.34-.1.18-.21.39-.33.59-.22.37-.44.75-.68,1.11a.34.34,0,0,0,0,.35,1.49,1.49,0,0,1-.1,1.55,2.19,2.19,0,0,1-2,.83c-.29,0-.4-.3-.22-.55s.41-.53.62-.79.43-.53.64-.81a.28.28,0,0,0,.05-.22c-.19-.49-.39-1-.58-1.45-.08.19-.17.43-.28.65-.46.93-.91,1.86-1.39,2.78a2,2,0,0,1-.4.5.49.49,0,0,1-.87-.27,4.58,4.58,0,0,1-.06-.61c0-.07,0-.15,0-.3-.2.4-.36.75-.54,1.08a.8.8,0,0,1-.77.54.64.64,0,0,1-.55-.31,2.92,2.92,0,0,1-.41-2.15c0-.27.11-.53.17-.85l-1,.57c.06.29.13.56.17.83a3.26,3.26,0,0,1-2.27,3.58l-.39.1H1.65a1.09,1.09,0,0,1-.82-.55,1.89,1.89,0,0,1,.14-2A3.85,3.85,0,0,1,2.18,11c.52-.34,1.06-.65,1.61-1L3.62,9.9,2.28,9A5.28,5.28,0,0,1,0,6.29Zm4.28,4.8a7.63,7.63,0,0,0-2,1.52,1.62,1.62,0,0,0-.42,1c0,.44.23.65.66.55a2.36,2.36,0,0,0,1.56-1.21A2.21,2.21,0,0,0,4.28,10.49Zm2.44.36c0,.23.07.46.14.69s.16.19.27,0a1.54,1.54,0,0,0,.19-.33c.23-.56.46-1.13.67-1.7a9.55,9.55,0,0,0,.31-1.1c.05-.23-.06-.31-.26-.19a1.61,1.61,0,0,0-.48.38A3.91,3.91,0,0,0,6.72,10.85ZM13.8,11a1,1,0,0,0,.72-1.29A2.29,2.29,0,0,0,13.8,11ZM11,11.72a1.26,1.26,0,0,0,.91-1.05Z"/><path class="cls-1" d="M13.8,11a2.29,2.29,0,0,1,.72-1.29A1,1,0,0,1,13.8,11Z"/><path class="cls-1" d="M11,11.72l.91-1.05A1.26,1.26,0,0,1,11,11.72Z"/></g></g></svg>