<svg xmlns="http://www.w3.org/2000/svg" viewBox="0 0 14.27 14.27"><defs><style>.cls-1{fill:#00aeef;}</style></defs><title>wordpress</title><g id="Layer_2" data-name="Layer 2"><g id="Layer_1-2" data-name="Layer 1"><path class="cls-1" d="M7.23,7.62l-1.69,4.9A5.63,5.63,0,0,0,9,12.44l0-.08Z"/><path class="cls-1" d="M1.51,7.13a5.62,5.62,0,0,0,3.17,5.06L2,4.85A5.59,5.59,0,0,0,1.51,7.13Z"/><path class="cls-1" d="M10.93,6.85a3,3,0,0,0-.46-1.55A2.63,2.63,0,0,1,9.91,4a1,1,0,0,1,.94-1h.07A5.62,5.62,0,0,0,2.44,4H2.8C3.39,4.05,4.3,4,4.3,4a.23.23,0,0,1,0,.46s-.3,0-.64.05l2,6.09L7,6.9,6.09,4.5,5.5,4.44a.23.23,0,0,1,0-.46s.93.07,1.48.07S8.52,4,8.52,4a.23.23,0,0,1,0,.46l-.64.05,2,6,.56-1.87A6.81,6.81,0,0,0,10.93,6.85Z"/><path class="cls-1" d="M12.07,4.44a4.24,4.24,0,0,1,0,.58,5.31,5.31,0,0,1-.43,2L10,12a5.62,5.62,0,0,0,2.11-7.56Z"/><path class="cls-1" d="M7.13,0a7.13,7.13,0,1,0,7.13,7.13A7.13,7.13,0,0,0,7.13,0Zm0,13.39a6.25,6.25,0,1,1,6.25-6.25A6.26,6.26,0,0,1,7.13,13.39Z"/></g></g></svg>